<?xml version="1.0" encoding="UTF-8"?><svg id="Layer_2" xmlns="http://www.w3.org/2000/svg" xmlns:xlink="http://www.w3.org/1999/xlink" viewBox="0 0 598.74 598.74"><defs><style>.cls-1{fill:url(#linear-gradient);}</style><linearGradient id="linear-gradient" x1="299.37" y1="598.74" x2="299.37" y2="0" gradientUnits="userSpaceOnUse"><stop offset="0" stop-color="#00ffbc"/><stop offset="1" stop-color="lime"/></linearGradient></defs><g id="Layer_1-2"><g><rect class="cls-1" width="598.74" height="598.74"/><path d="M471.83,339.37c-.5,64.28-42.35,112.1-99.93,120.06-24.33,3.36-47.42-1.11-69.07-12.68-2.48-1.33-4.24-1.47-6.78-.09-68.64,37.28-154.51-4.71-167.48-81.82-7.83-46.55,12.72-92.04,53.02-117.12,2.23-1.39,3.15-2.85,3.51-5.49,6.69-49.28,33.27-82.89,80.52-98.55,64.62-21.41,135.77,22.26,146.57,89.49,1.39,8.67,4.43,14.13,11.78,19.43,31.52,22.73,46.99,54.27,47.87,86.76Zm-285.7-66.48c-33.85,24.33-49.48,76.52-22.9,120.11,27.85,45.67,81.58,52.81,115.94,36-1.33-.9-2.51-1.44-3.37-2.31-19.47-19.72-30.6-43.36-33.43-70.95-.15-1.5-1.56-3.16-2.83-4.21-7.75-6.44-16.27-12.08-23.32-19.19-16.23-16.38-25.85-36.44-30.09-59.45Zm226.55,.06c-6.91,34.38-24.82,60.81-54.46,79.19-1.01,.63-1.79,2.33-1.92,3.6-2.18,22.15-9.89,42.12-23.54,59.71-3.8,4.89-8.1,9.4-12.16,14.07,33.23,16.23,87.01,9.25,114.9-36.53,26.54-43.56,10.96-95.74-22.82-120.04Zm-23.62-37.93c-5.43-34.95-41.14-76.54-95.41-73.35-24.11,1.42-44.51,11.24-61.13,28.67-11.93,12.51-19.66,27.3-23.22,44.7,1.64-.37,2.71-.59,3.77-.86,25.68-6.55,50.67-4.55,74.95,6.07,3.86,1.69,7.64,5.02,11.45,5.01,3.81-.01,7.57-3.38,11.43-5.07,25.31-11.08,51.29-12.57,78.17-5.16Zm-89.75,38.66c-19.56,16.56-31.01,36.96-33.8,62.11-.22,1.96-.08,3.18,2.1,3.95,21.25,7.58,42.47,7.57,63.64-.17,.93-.34,1.94-2.16,1.86-3.21-.28-3.71-.79-7.44-1.62-11.07-4.76-20.75-15.46-37.82-32.18-51.62Zm-55.78,52.69c4.74-25.79,16.37-47.17,35.13-65.08-1.75-.76-3.06-1.4-4.43-1.91-20.63-7.63-41.36-7.79-62.26-1.01-3.61,1.17-4.38,3-3.88,6.47,3.17,22.16,12.76,40.96,29.19,56.21,1.88,1.74,3.9,3.32,6.26,5.31Zm76.49-65.1c18.91,18.04,30.44,39.47,35.2,65.16,2.49-2.14,4.51-3.76,6.4-5.52,16.38-15.3,25.92-34.12,29.03-56.29,.47-3.33-.25-5.1-3.76-6.2-9.95-3.11-20.03-5-30.48-4.94-12.47,.08-24.42,2.5-36.4,7.79Zm-20.65,155.89c17.02-14.13,27.88-31.55,32.64-53.51-22.11,6.35-43.44,6.21-65.33,.06,4.88,21.92,15.63,39.31,32.68,53.44Z"/></g></g></svg>