<?xml version="1.0" encoding="UTF-8"?><svg id="Layer_2" xmlns="http://www.w3.org/2000/svg" xmlns:xlink="http://www.w3.org/1999/xlink" viewBox="0 0 598.74 598.74"><defs><style>.cls-1{fill:url(#linear-gradient);}.cls-2{font-family:AcuminConcept-WideBlack, 'Acumin Variable Concept';font-size:217.47px;font-variation-settings:'wght' 800, 'wdth' 115, 'slnt' 0;font-weight:800;letter-spacing:0em;}</style><linearGradient id="linear-gradient" x1="299.37" y1="598.74" x2="299.37" y2="0" gradientUnits="userSpaceOnUse"><stop offset="0" stop-color="#00ffbc"/><stop offset="1" stop-color="lime"/></linearGradient></defs><g id="Layer_1-2"><g><rect class="cls-1" width="598.74" height="598.74"/><g><path d="M155.83,183.99c1.7-4.71,5.11-6.31,10.02-6.3,77.67,.08,155.35,.05,233.02,.06,7.19,0,9.99,2.77,9.99,9.88,.01,13.49,.03,26.99,.03,40.48,0,6.31-2.96,9.3-9.28,9.34-5.14,.04-10.29-.02-15.43,.02-3.35,.02-6-1.17-8.09-3.86-3.83-4.92-7.76-9.77-11.74-14.58-.61-.73-1.72-1.49-2.61-1.49-18.13-.08-36.26-.05-54.4-.04-.24,0-.48,.1-1.11,.23v3.12c0,66.8,0,133.59,0,200.39,0,1.18,.02,2.36-.06,3.54-.27,3.95-3.17,7.16-7.12,7.21-11.13,.14-22.26,.14-33.39,0-3.8-.05-6.73-3.23-7.07-7.02-.1-1.09-.06-2.19-.06-3.29,0-66.88,0-133.76,0-200.64v-3.55h-2.93c-17.2,0-34.41,.03-51.61-.04-1.79,0-2.91,.53-4,1.94-3.65,4.74-7.52,9.31-11.16,14.07-2.13,2.79-4.82,4.06-8.26,4.03-4.64-.04-9.29-.18-13.91,.04-4.93,.24-8.72-1.22-10.82-5.95v-47.57Z"/><text class="cls-2" transform="translate(346.14 432.08)"><tspan x="0" y="0">-</tspan></text></g></g></g></svg>