<?xml version="1.0" encoding="UTF-8"?><svg id="Layer_2" xmlns="http://www.w3.org/2000/svg" xmlns:xlink="http://www.w3.org/1999/xlink" viewBox="0 0 598.74 598.74"><defs><style>.cls-1{fill:url(#linear-gradient);}</style><linearGradient id="linear-gradient" x1="299.37" y1="598.74" x2="299.37" y2="0" gradientUnits="userSpaceOnUse"><stop offset="0" stop-color="#00ffbc"/><stop offset="1" stop-color="lime"/></linearGradient></defs><g id="Layer_1-2"><g><rect class="cls-1" width="598.74" height="598.74"/><g><path d="M107.74,419.09c3.97-10.44,8.03-20.85,11.88-31.33,26.05-70.82,52.05-141.66,78.07-212.49,2.9-7.91,5.8-9.93,14.18-9.93,13.47,0,26.94-.02,40.42,0,6.68,.01,10.16,2.37,12.46,8.63,29.78,80.99,59.54,161.99,89.27,243,3.38,9.21-1.68,16.31-11.51,16.33-16.22,.03-32.43,.02-48.65,0-6.63,0-10.09-2.43-12.4-8.71-5.43-14.72-10.88-29.43-16.19-44.2-.88-2.44-1.93-3.46-4.7-3.44-19.33,.14-38.67,.15-58,0-2.93-.02-4.07,1.04-5,3.62-5.16,14.42-10.49,28.78-15.77,43.16-2.71,7.38-5.83,9.57-13.68,9.57-15.22,0-30.44-.22-45.65,.1-6.87,.15-11.82-2-14.72-8.34,0-2,0-3.99,0-5.99Zm123.73-96c6.98,0,13.96,.04,20.94-.01,6.07-.05,8.46-3.37,6.41-8.97-7.18-19.63-14.42-39.23-21.62-58.85-1.03-2.81-2.6-4.82-5.91-4.72-3.11,.09-4.53,2.02-5.51,4.71-7.17,19.63-14.42,39.23-21.59,58.86-2.09,5.72,.21,8.93,6.35,8.98,6.98,.06,13.96,.01,20.94,.01Z"/><path d="M468.24,318.4c.31-2.65,.28-5.06,.91-7.3,1.47-5.24,6.41-8.49,11.62-7.99,5.36,.51,9.66,4.87,10.18,10.3,.02,.25,.03,.5,.03,.75,0,36.03,.08,72.05-.07,108.08-.03,8.08-7.88,13.09-15.29,10.21-4.39-1.71-6.61-5.12-7.02-9.73-.13-1.47-.02-2.97-.02-5.2-17.94,14.55-37.67,19.21-59.48,13.31-15.32-4.15-27.73-12.8-36.94-25.79-17.32-24.43-14.56-59.36,5.9-81.01,19.97-21.13,58.72-31.37,90.2-5.63Zm.29,49.81c0-23.42-19.24-42.72-42.55-42.67-23.92,.05-42.43,18.49-42.6,42.44-.18,24.08,18.61,42.84,42.93,42.87,22.98,.03,42.21-19.39,42.22-42.64Z"/></g></g></g></svg>