<?xml version="1.0" encoding="UTF-8"?><svg id="Layer_2" xmlns="http://www.w3.org/2000/svg" viewBox="0 0 387 85.8"><defs><style>.cls-1{fill:lime;}</style></defs><g id="Layer_2-2"><g id="Layer_1-2"><g><path class="cls-1" d="M9.1,3.8H0v-1.4H19.8v1.4H10.7V84.73s-1.6,0-1.6,0V3.8Z"/><path class="cls-1" d="M25.5,0V23.7c.9-4,3.5-7,8-7,4,0,8.2,1.4,8.2,11.6v56.43s-1.6,0-1.6,0V29.3c0-8-1.8-11.1-6.7-11.1-5.5,0-7.9,5.2-7.9,14.7v51.83s-1.5,0-1.5,0V0s1.5,0,1.5,0h0Z"/><path class="cls-1" d="M51.2,39.5v28.45c0,10.92,2.1,15.99,7.1,15.99,6.1,0,7-6.53,7-15.19v-.4h1.6v.27c0,8.93-1.1,17.19-8.5,17.19s-8.6-6.93-8.6-17.99V29.6c0-8,2.6-12.9,8.8-12.9s8.4,4.6,8.4,12.4v10.4h-15.8Zm14.2-1.4v-8c0-5.9-.8-12-7-12s-7.3,5.3-7.3,12.1v7.9h14.3Z"/><path class="cls-1" d="M112.5,33c0-12.6,0-23.5,.2-29.3h-.1c-1.5,8.4-7.2,37.4-11.5,59.9h-1.8c-3.4-18.3-9.5-51.4-10.9-59.8h-.1c.2,7.1,.3,21.2,.3,31.6v28.1h-1.6V2.4h2.3c4.8,25,10.5,55.1,10.8,59.2h.1c.1-3.1,6.3-34.3,11.3-59.2h2.5V63.6h-1.6l.1-30.6h0Z"/><path class="cls-1" d="M123.6,39.5v11.5c0,8.2,2.1,12,7.1,12,6.1,0,7-4.9,7-11.4v-.3h1.6v.2c0,6.7-1.1,12.9-8.6,12.9s-8.6-5.2-8.6-13.5V29.6c0-8,2.6-12.9,8.8-12.9s8.6,4.6,8.6,12.4v10.4h-15.9Zm14.3-1.4v-8c0-5.9-.8-12-7-12s-7.3,5.3-7.3,12.1v7.9h14.3Z"/><path class="cls-1" d="M141.6,17.5h5.9V5.8h1.6v11.7h6.8v1.4h-6.9V57.4c0,2.1,.3,5.4,3.8,5.4,.9,0,1.8-.1,2.8-.4v1.3c-.9,.4-1.8,.5-2.9,.5-2.2,0-5.2-.6-5.2-6.4V18.8h-5.9v-1.3h0Z"/><path class="cls-1" d="M175.9,57.5c0,2,.1,4.9,.2,6.1h-1.4c-.2-.8-.3-2.8-.3-5.9-1.3,4-3.2,6.6-7.8,6.6-6.2,0-8.3-5.7-8.3-12v-.1c0-10.4,5.1-14.6,12.5-14.6h3.5v-11.5c0-3-.6-8-6.2-8-6.4,0-6.6,5.8-6.6,9.6v.6h-1.6v-.6c0-4.7,.7-10.9,8.2-10.9,6.6,0,7.8,5.1,7.8,9.4v31.3h0Zm-1.5-18.4h-3.7c-8.5,0-10.8,6.2-10.8,13.2v.1c0,5.9,2,10.6,6.8,10.6,6.3,0,7.6-7,7.6-15l.1-8.9h0Z"/><path class="cls-1" d="M184.7,29.2c0-6.9-.1-9.3-.2-11.8h1.5c0,.5,.3,2.2,.3,6.2,.7-3.5,2.9-7,7.4-7,3.9,0,6.3,2,7,7.1,.9-4.3,3.7-7.1,8.1-7.1,3,0,7.4,1,7.4,10.1V63.5h-1.6V27.2c0-4.9-.9-9-5.9-9-5.5,0-7.5,4.7-7.5,12.7V63.6h-1.6V28.1c0-6.6-1.6-9.9-6-9.9-6.1,0-7.4,7.8-7.4,13.1V63.6h-1.6l.1-34.4h0Z"/><path class="cls-1" d="M241.7,29.3v21.5c0,9.7-2.9,13.5-8.9,13.5s-8.8-4.1-8.8-13V29.4c0-9.3,3.5-12.7,9-12.7s8.7,3.9,8.7,12.6h0Zm-16.1,.1v21.8c0,8.2,2.5,11.8,7.3,11.8s7.4-3.4,7.4-11.9V29.4c0-8.4-2.9-11.3-7.4-11.3-3.7,0-7.3,1.8-7.3,11.3Z"/><path class="cls-1" d="M249.6,33.2c0-7-.1-12.3-.2-15.7h1.5c.1,.8,.2,2.7,.2,8.3,1.2-5.3,5-8.7,9-9v1.6c-6.2,1.1-8.9,6.5-8.9,16.6v28.7h-1.6v-30.5h0Z"/><path class="cls-1" d="M265.4,57.6v28.2h-1.6V31c0-6.4,0-10.4-.1-13.5h1.5c.1,.5,.2,3.1,.2,6.1,.6-3,2.5-6.8,7.9-6.8,6.7,0,8.3,5.7,8.3,12.9v21c0,11.4-3.9,13.7-8.8,13.7-5.4,0-6.9-4-7.4-6.8h0Zm14.6-7V29.8c0-7.2-1.6-11.7-6.8-11.7-7.7,0-7.9,9.6-7.9,16.7v10.9c0,9.2,.8,17.3,7.5,17.3,3.6,0,7.2-1.4,7.2-12.4h0Z"/><path class="cls-1" d="M291,0V23.7c.9-4,3.5-7,8-7,4,0,8.2,1.4,8.2,11.6V63.6h-1.6V29.3c0-8-1.8-11.1-6.7-11.1-5.5,0-7.9,5.2-7.9,14.7v30.7h-1.6V0h1.6Z"/><path class="cls-1" d="M332.8,29.3v21.5c0,9.7-2.9,13.5-8.9,13.5s-8.8-4.1-8.8-13V29.4c0-9.3,3.5-12.7,9-12.7s8.7,3.9,8.7,12.6h0Zm-16.2,.1v21.8c0,8.2,2.5,11.8,7.3,11.8s7.4-3.4,7.4-11.9V29.4c0-8.4-2.9-11.3-7.4-11.3-3.6,0-7.3,1.8-7.3,11.3Z"/><path class="cls-1" d="M339.7,51.6v1c0,4.8,.8,10.4,6.9,10.4,5.2,0,7.2-3.3,7.2-9.9,0-6-1.3-8.9-7.1-13.1-5.5-4-7.7-6.6-7.7-13.1,0-5.1,1.8-10,8-10,7.3,0,7.7,6.6,7.7,10.7v1.3h-1.6v-1.2c0-3.3-.2-9.4-6.2-9.4-4.5,0-6.3,3.4-6.3,8.5,0,5.7,1.5,7.8,6.6,11.6,6,4.4,8.2,7.5,8.2,14.7,0,6.8-2,11.4-8.7,11.4-7.7,0-8.5-7.3-8.5-11.8v-1l1.5-.1h0Z"/><path class="cls-1" d="M361.9,17.5h1.6V63.7h-1.6V17.5Zm.2-17.5h1.6V7.6h-1.6V0Z"/><path class="cls-1" d="M371.3,51.6v1c0,4.8,.8,10.4,6.9,10.4,5.2,0,7.2-3.3,7.2-9.9,0-6-1.3-8.9-7.1-13.1-5.5-4-7.7-6.6-7.7-13.1,0-5.1,1.8-10,8-10,7.3,0,7.7,6.6,7.7,10.7v1.3h-1.6v-1.2c0-3.3-.2-9.4-6.2-9.4-4.5,0-6.3,3.4-6.3,8.5,0,5.7,1.5,7.8,6.6,11.6,6,4.4,8.2,7.5,8.2,14.7,0,6.8-2,11.4-8.7,11.4-7.7,0-8.5-7.3-8.5-11.8v-1l1.5-.1h0Z"/></g></g><g><path class="cls-1" d="M86.52,71.36h2.19c.99,0,1.56,.42,1.56,1.22,0,.64-.45,.95-.83,1.05,.43,.1,1.05,.4,1.05,1.23,0,1.02-.87,1.43-1.69,1.43h-2.28v-4.93Zm2.05,2.09c.8,0,1.24-.27,1.24-.85,0-.67-.55-.85-1.21-.85h-1.66v1.7h1.62Zm-1.62,2.45h1.69c.65,0,1.39-.2,1.39-1.01,0-.7-.57-1.05-1.5-1.05h-1.57v2.06Z"/><path class="cls-1" d="M94.79,74.57c0,.9-.56,1.83-1.78,1.83-1.1,0-1.75-.86-1.75-1.82,0-1.02,.7-1.83,1.78-1.83s1.75,.88,1.75,1.83Zm-3.11,0c0,.72,.49,1.45,1.35,1.45s1.34-.67,1.34-1.45-.51-1.46-1.36-1.46-1.33,.68-1.33,1.46Z"/><path class="cls-1" d="M98.96,74.57c0,.9-.56,1.83-1.78,1.83-1.1,0-1.75-.86-1.75-1.82,0-1.02,.7-1.83,1.78-1.83s1.75,.88,1.75,1.83Zm-3.11,0c0,.72,.49,1.45,1.35,1.45s1.34-.67,1.34-1.45-.51-1.46-1.36-1.46-1.33,.68-1.33,1.46Z"/><path class="cls-1" d="M100.32,74.58c.38-.31,1.55-1.27,2.14-1.74h.56l-1.68,1.35,1.86,2.1h-.54l-1.63-1.87-.71,.54v1.32h-.4v-5.22h.4v3.51Z"/><path class="cls-1" d="M105.93,71.07h.4v2.39c.17-.3,.57-.72,1.36-.72,.98,0,1.65,.77,1.65,1.77,0,1.14-.69,1.88-1.68,1.88-.79,0-1.15-.36-1.34-.71,0,.21,0,.47-.02,.62h-.39c0-.4,0-.81,0-1.21v-4.01Zm3,3.45c0-.65-.38-1.4-1.29-1.4s-1.33,.64-1.33,1.44c0,.92,.54,1.46,1.34,1.46,.93,0,1.28-.74,1.28-1.5Z"/><path class="cls-1" d="M110.27,72.84c.81,1.81,1.29,2.85,1.41,3.17h0c.14-.34,.54-1.37,1.3-3.17h.43l-1.47,3.46c-.62,1.45-.87,1.64-1.57,1.64-.11,0-.29-.01-.4-.03v-.4c.12,.02,.32,.03,.4,.03,.46,0,.68-.22,1.07-1.07l-1.64-3.63h.45Z"/><path class="cls-1" d="M116.4,71.36h3.59v.39h-3.16v1.86h2.94v.4h-2.94v2.28h-.43v-4.93Z"/><path class="cls-1" d="M120.65,73.78c0-.31,0-.63,0-.94h.39c0,.09,.02,.44,.02,.83,.24-.57,.78-.92,1.44-.92v.41c-.8,0-1.44,.56-1.44,1.6v1.54h-.4v-2.52Z"/><path class="cls-1" d="M125.91,75.51c0,.27,.02,.71,.03,.79h-.39c-.03-.15-.04-.45-.04-.57-.18,.39-.57,.67-1.35,.67-1,0-1.34-.6-1.34-1.1,0-.87,.81-1.11,1.78-1.11h.91v-.23c0-.43-.19-.86-1.05-.86-.77,0-.95,.36-1.03,.74h-.4c.05-.48,.36-1.09,1.44-1.09s1.44,.56,1.44,1.13v1.63Zm-.4-.99h-.9c-.93,0-1.38,.19-1.38,.76,0,.41,.29,.76,.97,.76,1.1,0,1.31-.68,1.31-1.32v-.2Z"/><path class="cls-1" d="M127.17,73.71c0-.29,0-.61,0-.87h.39c.01,.13,.02,.46,.02,.75,.15-.38,.53-.84,1.31-.84s1.33,.48,1.33,1.47v2.09h-.4v-2c0-.67-.25-1.17-.98-1.17-.84,0-1.25,.66-1.25,1.56v1.62h-.4v-2.59Z"/><path class="cls-1" d="M131.04,75.98l2.63-2.78h-2.48v-.36h3.02v.34l-2.62,2.77h2.78l-.1,.36h-3.23v-.32Z"/><path class="cls-1" d="M137.27,71.36h.43v2.58c.78-.64,2.27-1.82,3.2-2.58h.61l-2.61,2.11,2.77,2.83h-.6l-2.52-2.6-.85,.66v1.94h-.43v-4.93Z"/><path class="cls-1" d="M145.23,75.51c0,.27,.02,.71,.03,.79h-.39c-.03-.15-.04-.45-.04-.57-.18,.39-.57,.67-1.35,.67-1,0-1.34-.6-1.34-1.1,0-.87,.81-1.11,1.78-1.11h.91v-.23c0-.43-.19-.86-1.05-.86-.77,0-.95,.36-1.03,.74h-.4c.05-.48,.36-1.09,1.44-1.09s1.44,.56,1.44,1.13v1.63Zm-.4-.99h-.9c-.93,0-1.38,.19-1.38,.76,0,.41,.29,.76,.97,.76,1.1,0,1.31-.68,1.31-1.32v-.2Z"/><path class="cls-1" d="M146.46,76.3v-5.22h.4v5.22h-.4Z"/><path class="cls-1" d="M148.51,74.58c.38-.31,1.55-1.27,2.14-1.74h.56l-1.68,1.35,1.86,2.1h-.54l-1.63-1.87-.71,.54v1.32h-.4v-5.22h.4v3.51Z"/><path class="cls-1" d="M154.83,75.51c0,.27,.02,.71,.03,.79h-.39c-.03-.15-.04-.45-.04-.57-.18,.39-.57,.67-1.35,.67-1,0-1.34-.6-1.34-1.1,0-.87,.81-1.11,1.78-1.11h.91v-.23c0-.43-.19-.86-1.05-.86-.77,0-.95,.36-1.03,.74h-.4c.05-.48,.36-1.09,1.44-1.09s1.44,.56,1.44,1.13v1.63Zm-.4-.99h-.9c-.93,0-1.38,.19-1.38,.76,0,.41,.29,.76,.97,.76,1.1,0,1.31-.68,1.31-1.32v-.2Z"/><path class="cls-1" d="M86.95,79.05v4.93h-.43v-4.93h.43Z"/><path class="cls-1" d="M88.33,83.99v-5.22h.4v5.22h-.4Z"/><path class="cls-1" d="M89.98,83.99v-5.22h.4v5.22h-.4Z"/><path class="cls-1" d="M94.59,82.98c0,.34,0,.67,0,1.01h-.38c-.01-.1-.03-.39-.03-.69-.17,.46-.51,.78-1.28,.78s-1.31-.39-1.31-1.39v-2.16h.4v2.08c0,.56,.23,1.09,.94,1.09,.86,0,1.25-.5,1.25-1.63v-1.54h.4v2.45Z"/><path class="cls-1" d="M95.86,82.95c.14,.5,.56,.78,1.28,.78,.77,0,1.07-.28,1.07-.67,0-.34-.19-.59-1.17-.71-1.16-.13-1.41-.52-1.41-.96,0-.4,.33-.96,1.39-.96,1.18,0,1.47,.64,1.5,1.01h-.42c-.06-.23-.21-.66-1.12-.66-.77,0-.94,.34-.94,.58,0,.32,.19,.51,1.06,.62,1.24,.15,1.52,.52,1.52,1.05,0,.62-.47,1.05-1.51,1.05s-1.55-.44-1.67-1.13h.42Z"/><path class="cls-1" d="M99.01,80.53h.72v-1.17h.4v1.17h.96v.36h-.96v2.14c0,.45,.12,.65,.52,.65,.1,0,.26,0,.36-.03v.33c-.14,.06-.28,.06-.45,.06-.64,0-.84-.29-.84-.98v-2.16h-.72v-.36Z"/><path class="cls-1" d="M101.83,81.47c0-.31,0-.63,0-.94h.39c0,.09,.02,.44,.02,.83,.24-.57,.78-.92,1.44-.92v.41c-.8,0-1.44,.56-1.44,1.6v1.54h-.4v-2.52Z"/><path class="cls-1" d="M107.09,83.19c0,.27,.02,.71,.03,.79h-.39c-.03-.15-.04-.45-.04-.57-.18,.39-.57,.67-1.35,.67-1,0-1.34-.6-1.34-1.1,0-.87,.81-1.11,1.78-1.11h.91v-.23c0-.43-.19-.86-1.05-.86-.77,0-.95,.36-1.03,.74h-.4c.05-.48,.36-1.09,1.44-1.09s1.44,.56,1.44,1.13v1.63Zm-.4-.99h-.9c-.93,0-1.38,.19-1.38,.76,0,.41,.29,.76,.97,.76,1.1,0,1.31-.68,1.31-1.32v-.2Z"/><path class="cls-1" d="M107.69,80.53h.72v-1.17h.4v1.17h.96v.36h-.96v2.14c0,.45,.12,.65,.52,.65,.1,0,.26,0,.36-.03v.33c-.14,.06-.28,.06-.45,.06-.64,0-.84-.29-.84-.98v-2.16h-.72v-.36Z"/><path class="cls-1" d="M110.61,78.76h.4v.73h-.4v-.73Zm0,1.77h.4v3.46h-.4v-3.46Z"/><path class="cls-1" d="M115.47,82.26c0,.9-.56,1.83-1.78,1.83-1.1,0-1.75-.86-1.75-1.82,0-1.02,.7-1.83,1.78-1.83s1.75,.88,1.75,1.83Zm-3.11,0c0,.72,.49,1.45,1.35,1.45s1.34-.67,1.34-1.45-.51-1.46-1.36-1.46-1.33,.68-1.33,1.46Z"/><path class="cls-1" d="M116.4,81.4c0-.29,0-.61,0-.87h.39c.01,.13,.02,.46,.02,.75,.15-.38,.53-.84,1.31-.84s1.33,.48,1.33,1.47v2.09h-.4v-2c0-.67-.25-1.17-.98-1.17-.84,0-1.25,.66-1.25,1.56v1.62h-.4v-2.59Z"/><path class="cls-1" d="M120.68,82.95c.14,.5,.56,.78,1.28,.78,.77,0,1.07-.28,1.07-.67,0-.34-.19-.59-1.17-.71-1.16-.13-1.41-.52-1.41-.96,0-.4,.33-.96,1.39-.96,1.18,0,1.47,.64,1.5,1.01h-.42c-.06-.23-.21-.66-1.12-.66-.77,0-.94,.34-.94,.58,0,.32,.19,.51,1.06,.62,1.24,.15,1.52,.52,1.52,1.05,0,.62-.47,1.05-1.51,1.05s-1.55-.44-1.67-1.13h.42Z"/><path class="cls-1" d="M126.49,78.76h.4v2.39c.17-.3,.57-.72,1.36-.72,.98,0,1.65,.77,1.65,1.77,0,1.14-.69,1.88-1.68,1.88-.79,0-1.15-.36-1.34-.71,0,.21,0,.47-.02,.62h-.39c0-.4,0-.81,0-1.21v-4.01Zm3,3.45c0-.65-.38-1.4-1.29-1.4s-1.33,.64-1.33,1.44c0,.92,.54,1.46,1.34,1.46,.93,0,1.28-.74,1.28-1.5Z"/><path class="cls-1" d="M130.83,80.53c.81,1.81,1.29,2.85,1.41,3.17h0c.14-.34,.54-1.37,1.3-3.17h.43l-1.47,3.46c-.62,1.45-.87,1.64-1.57,1.64-.11,0-.29-.01-.4-.03v-.4c.12,.02,.32,.03,.4,.03,.46,0,.68-.22,1.07-1.07l-1.64-3.63h.45Z"/><path class="cls-1" d="M137.39,79.05v4.93h-.43v-4.93h.43Z"/><path class="cls-1" d="M139.17,82.27c.38-.31,1.55-1.27,2.14-1.74h.56l-1.68,1.35,1.86,2.1h-.54l-1.63-1.87-.71,.54v1.32h-.4v-5.22h.4v3.51Z"/><path class="cls-1" d="M142.73,82.34c.04,.8,.57,1.38,1.37,1.38,.61,0,.97-.27,1.19-.68h.4c-.17,.46-.65,1.04-1.64,1.04-1.14,0-1.73-.89-1.73-1.81,0-1.08,.72-1.84,1.71-1.84,1.29,0,1.71,.98,1.71,1.79v.12h-3.02Zm2.58-.35c-.03-.49-.29-1.2-1.28-1.2-.78,0-1.21,.51-1.28,1.2h2.56Z"/><path class="cls-1" d="M149.89,83.5c0,1.33-.36,2.13-1.77,2.13-1.26,0-1.54-.74-1.61-1.16h.42c.12,.42,.4,.8,1.21,.8,1.18,0,1.35-.76,1.35-1.76v-.21c-.21,.47-.64,.76-1.39,.76-.96,0-1.64-.75-1.64-1.76,0-1.13,.82-1.87,1.72-1.87,.83,0,1.19,.4,1.3,.71,0-.19,0-.51,.02-.61h.38c0,.33,0,.66,0,1v1.97Zm-3-1.22c0,.83,.56,1.39,1.3,1.39,.82,0,1.32-.51,1.32-1.44s-.48-1.43-1.28-1.43c-.93,0-1.35,.77-1.35,1.47Z"/><path class="cls-1" d="M153.92,83.19c0,.27,.02,.71,.03,.79h-.39c-.03-.15-.04-.45-.04-.57-.18,.39-.57,.67-1.35,.67-1,0-1.34-.6-1.34-1.1,0-.87,.81-1.11,1.78-1.11h.91v-.23c0-.43-.19-.86-1.05-.86-.77,0-.95,.36-1.03,.74h-.4c.05-.48,.36-1.09,1.44-1.09s1.44,.56,1.44,1.13v1.63Zm-.4-.99h-.9c-.93,0-1.38,.19-1.38,.76,0,.41,.29,.76,.97,.76,1.1,0,1.31-.68,1.31-1.32v-.2Z"/><path class="cls-1" d="M155.18,81.42c0-.3,0-.59,0-.89h.4c.01,.15,.02,.36,.01,.58,.17-.32,.51-.67,1.15-.67,.55,0,.91,.28,1.07,.72,.19-.32,.51-.72,1.2-.72s1.21,.37,1.21,1.39v2.16h-.4v-2.14c0-.46-.14-1.04-.85-1.04-.64,0-1.06,.45-1.06,1.29v1.89h-.4v-2.18c0-.45-.15-1-.86-1-.77,0-1.06,.62-1.06,1.36v1.81h-.4v-2.57Z"/><path class="cls-1" d="M161.46,78.76h.4v.73h-.4v-.73Zm0,1.77h.4v3.46h-.4v-3.46Z"/><path class="cls-1" d="M166.63,83.99v-1.94s-.01-.07-.04-.1l-2.08-2.89h.52c.63,.88,1.61,2.21,1.83,2.59,.24-.39,1.17-1.71,1.81-2.59h.49l-2.07,2.89s-.03,.06-.03,.11v1.93h-.43Z"/><path class="cls-1" d="M172.3,82.26c0,.9-.56,1.83-1.78,1.83-1.1,0-1.75-.86-1.75-1.82,0-1.02,.7-1.83,1.78-1.83s1.75,.88,1.75,1.83Zm-3.11,0c0,.72,.49,1.45,1.35,1.45s1.34-.67,1.34-1.45-.51-1.46-1.36-1.46-1.33,.68-1.33,1.46Z"/><path class="cls-1" d="M173.23,81.47c0-.31,0-.63,0-.94h.39c0,.09,.02,.44,.02,.83,.24-.57,.78-.92,1.44-.92v.41c-.8,0-1.44,.56-1.44,1.6v1.54h-.4v-2.52Z"/><path class="cls-1" d="M175.79,78.76h.4v.73h-.4v-.73Zm0,1.77h.4v3.46h-.4v-3.46Z"/><path class="cls-1" d="M177.48,80.53c.81,1.81,1.29,2.85,1.41,3.17h0c.14-.34,.54-1.37,1.3-3.17h.43l-1.47,3.46c-.62,1.45-.87,1.64-1.57,1.64-.11,0-.29-.01-.4-.03v-.4c.12,.02,.32,.03,.4,.03,.46,0,.68-.22,1.07-1.07l-1.64-3.63h.45Z"/><path class="cls-1" d="M184.38,82.98c0,.34,0,.67,0,1.01h-.38c-.01-.1-.03-.39-.03-.69-.17,.46-.51,.78-1.28,.78s-1.31-.39-1.31-1.39v-2.16h.4v2.08c0,.56,.23,1.09,.94,1.09,.86,0,1.25-.5,1.25-1.63v-1.54h.4v2.45Z"/><path class="cls-1" d="M185.99,82.27c.38-.31,1.55-1.27,2.14-1.74h.56l-1.68,1.35,1.86,2.1h-.54l-1.63-1.87-.71,.54v1.32h-.4v-5.22h.4v3.51Z"/><path class="cls-1" d="M189.49,78.76h.4v.73h-.4v-.73Zm0,1.77h.4v3.46h-.4v-3.46Z"/></g></g></svg>