<?xml version="1.0" encoding="utf-8"?>
<!-- Generator: Adobe Illustrator 27.0.0, SVG Export Plug-In . SVG Version: 6.00 Build 0)  -->
<svg version="1.1" id="Layer_2_00000049913951228541799860000007835501641251506071_"
	 xmlns="http://www.w3.org/2000/svg" xmlns:xlink="http://www.w3.org/1999/xlink" x="0px" y="0px" viewBox="0 0 387 79.4"
	 style="enable-background:new 0 0 387 79.4;" xml:space="preserve">
<style type="text/css">
	.st0{fill:#00FF00;}
</style>
<g id="Layer_1-2">
	<g>
		<path class="st0" d="M9.1,3.8H0V2.4h19.8v1.4h-9.1v59.8H9.1V3.8z"/>
		<path class="st0" d="M25.5,0v23.7c0.9-4,3.5-7,8-7c4,0,8.2,1.4,8.2,11.6v35.3h-1.6V29.3c0-8-1.8-11.1-6.7-11.1
			c-5.5,0-7.9,5.2-7.9,14.7v30.7H24V0H25.5L25.5,0z"/>
		<path class="st0" d="M51.2,39.5V51c0,8.2,2.1,12,7.1,12c6.1,0,7-4.9,7-11.4v-0.3h1.6v0.2c0,6.7-1.1,12.9-8.5,12.9
			s-8.6-5.2-8.6-13.5V29.6c0-8,2.6-12.9,8.8-12.9S67,21.3,67,29.1v10.4L51.2,39.5L51.2,39.5z M65.4,38.1v-8c0-5.9-0.8-12-7-12
			s-7.3,5.3-7.3,12.1v7.9H65.4z"/>
		<path class="st0" d="M112.5,33c0-12.6,0-23.5,0.2-29.3h-0.1c-1.5,8.4-7.2,37.4-11.5,59.9h-1.8c-3.4-18.3-9.5-51.4-10.9-59.8h-0.1
			c0.2,7.1,0.3,21.2,0.3,31.6v28.1H87V2.4h2.3c4.8,25,10.5,55.1,10.8,59.2h0.1c0.1-3.1,6.3-34.3,11.3-59.2h2.5v61.2h-1.6L112.5,33
			L112.5,33z"/>
		<path class="st0" d="M123.6,39.5V51c0,8.2,2.1,12,7.1,12c6.1,0,7-4.9,7-11.4v-0.3h1.6v0.2c0,6.7-1.1,12.9-8.6,12.9
			s-8.6-5.2-8.6-13.5V29.6c0-8,2.6-12.9,8.8-12.9c6.2,0,8.6,4.6,8.6,12.4v10.4L123.6,39.5L123.6,39.5z M137.9,38.1v-8
			c0-5.9-0.8-12-7-12s-7.3,5.3-7.3,12.1v7.9H137.9z"/>
		<path class="st0" d="M141.6,17.5h5.9V5.8h1.6v11.7h6.8v1.4H149v38.5c0,2.1,0.3,5.4,3.8,5.4c0.9,0,1.8-0.1,2.8-0.4v1.3
			c-0.9,0.4-1.8,0.5-2.9,0.5c-2.2,0-5.2-0.6-5.2-6.4V18.8h-5.9L141.6,17.5L141.6,17.5z"/>
		<path class="st0" d="M175.9,57.5c0,2,0.1,4.9,0.2,6.1h-1.4c-0.2-0.8-0.3-2.8-0.3-5.9c-1.3,4-3.2,6.6-7.8,6.6
			c-6.2,0-8.3-5.7-8.3-12v-0.1c0-10.4,5.1-14.6,12.5-14.6h3.5V26.1c0-3-0.6-8-6.2-8c-6.4,0-6.6,5.8-6.6,9.6v0.6h-1.6v-0.6
			c0-4.7,0.7-10.9,8.2-10.9c6.6,0,7.8,5.1,7.8,9.4L175.9,57.5L175.9,57.5z M174.4,39.1h-3.7c-8.5,0-10.8,6.2-10.8,13.2v0.1
			c0,5.9,2,10.6,6.8,10.6c6.3,0,7.6-7,7.6-15L174.4,39.1L174.4,39.1z"/>
		<path class="st0" d="M184.7,29.2c0-6.9-0.1-9.3-0.2-11.8h1.5c0,0.5,0.3,2.2,0.3,6.2c0.7-3.5,2.9-7,7.4-7c3.9,0,6.3,2,7,7.1
			c0.9-4.3,3.7-7.1,8.1-7.1c3,0,7.4,1,7.4,10.1v36.8h-1.6V27.2c0-4.9-0.9-9-5.9-9c-5.5,0-7.5,4.7-7.5,12.7v32.7h-1.6V28.1
			c0-6.6-1.6-9.9-6-9.9c-6.1,0-7.4,7.8-7.4,13.1v32.3h-1.6L184.7,29.2L184.7,29.2z"/>
		<path class="st0" d="M241.7,29.3v21.5c0,9.7-2.9,13.5-8.9,13.5s-8.8-4.1-8.8-13V29.4c0-9.3,3.5-12.7,9-12.7S241.7,20.6,241.7,29.3
			L241.7,29.3z M225.6,29.4v21.8c0,8.2,2.5,11.8,7.3,11.8s7.4-3.4,7.4-11.9V29.4c0-8.4-2.9-11.3-7.4-11.3
			C229.2,18.1,225.6,19.9,225.6,29.4z"/>
		<path class="st0" d="M249.6,33.2c0-7-0.1-12.3-0.2-15.7h1.5c0.1,0.8,0.2,2.7,0.2,8.3c1.2-5.3,5-8.7,9-9v1.6
			c-6.2,1.1-8.9,6.5-8.9,16.6v28.7h-1.6V33.2L249.6,33.2z"/>
		<path class="st0" d="M265.4,57.6v21.8h-1.6V31c0-6.4,0-10.4-0.1-13.5h1.5c0.1,0.5,0.2,3.1,0.2,6.1c0.6-3,2.5-6.8,7.9-6.8
			c6.7,0,8.3,5.7,8.3,12.9v21c0,11.4-3.9,13.7-8.8,13.7C267.4,64.4,265.9,60.4,265.4,57.6L265.4,57.6z M280,50.6V29.8
			c0-7.2-1.6-11.7-6.8-11.7c-7.7,0-7.9,9.6-7.9,16.7v10.9c0,9.2,0.8,17.3,7.5,17.3C276.4,63,280,61.6,280,50.6L280,50.6z"/>
		<path class="st0" d="M291,0v23.7c0.9-4,3.5-7,8-7c4,0,8.2,1.4,8.2,11.6v35.3h-1.6V29.3c0-8-1.8-11.1-6.7-11.1
			c-5.5,0-7.9,5.2-7.9,14.7v30.7h-1.6V0H291L291,0z"/>
		<path class="st0" d="M332.8,29.3v21.5c0,9.7-2.9,13.5-8.9,13.5s-8.8-4.1-8.8-13V29.4c0-9.3,3.5-12.7,9-12.7S332.8,20.6,332.8,29.3
			L332.8,29.3z M316.6,29.4v21.8c0,8.2,2.5,11.8,7.3,11.8s7.4-3.4,7.4-11.9V29.4c0-8.4-2.9-11.3-7.4-11.3
			C320.3,18.1,316.6,19.9,316.6,29.4z"/>
		<path class="st0" d="M339.7,51.6v1c0,4.8,0.8,10.4,6.9,10.4c5.2,0,7.2-3.3,7.2-9.9c0-6-1.3-8.9-7.1-13.1c-5.5-4-7.7-6.6-7.7-13.1
			c0-5.1,1.8-10,8-10c7.3,0,7.7,6.6,7.7,10.7v1.3h-1.6v-1.2c0-3.3-0.2-9.4-6.2-9.4c-4.5,0-6.3,3.4-6.3,8.5c0,5.7,1.5,7.8,6.6,11.6
			c6,4.4,8.2,7.5,8.2,14.7c0,6.8-2,11.4-8.7,11.4c-7.7,0-8.5-7.3-8.5-11.8v-1L339.7,51.6L339.7,51.6z"/>
		<path class="st0" d="M361.9,17.5h1.6v46.2h-1.6V17.5z M362.1,0h1.6v7.6h-1.6V0z"/>
		<path class="st0" d="M371.3,51.6v1c0,4.8,0.8,10.4,6.9,10.4c5.2,0,7.2-3.3,7.2-9.9c0-6-1.3-8.9-7.1-13.1c-5.5-4-7.7-6.6-7.7-13.1
			c0-5.1,1.8-10,8-10c7.3,0,7.7,6.6,7.7,10.7v1.3h-1.6v-1.2c0-3.3-0.2-9.4-6.2-9.4c-4.5,0-6.3,3.4-6.3,8.5c0,5.7,1.5,7.8,6.6,11.6
			c6,4.4,8.2,7.5,8.2,14.7c0,6.8-2,11.4-8.7,11.4c-7.7,0-8.5-7.3-8.5-11.8v-1L371.3,51.6L371.3,51.6z"/>
	</g>
</g>
</svg>
