<?xml version="1.0" encoding="UTF-8"?><svg id="Layer_2" xmlns="http://www.w3.org/2000/svg" viewBox="0 0 387 85.8"><defs><style>.cls-1{fill:lime;}</style></defs><g id="Layer_2-2"><g id="Layer_1-2"><g><path class="cls-1" d="M9.1,3.8H0v-1.4H19.8v1.4H10.7V84.73s-1.6,0-1.6,0V3.8Z"/><path class="cls-1" d="M25.5,0V23.7c.9-4,3.5-7,8-7,4,0,8.2,1.4,8.2,11.6v56.43s-1.6,0-1.6,0V29.3c0-8-1.8-11.1-6.7-11.1-5.5,0-7.9,5.2-7.9,14.7v51.83s-1.5,0-1.5,0V0S25.5,0,25.5,0h0Z"/><path class="cls-1" d="M51.2,39.5v28.45c0,10.92,2.1,15.99,7.1,15.99,6.1,0,7-6.53,7-15.19v-.4h1.6v.27c0,8.93-1.1,17.19-8.5,17.19s-8.6-6.93-8.6-17.99V29.6c0-8,2.6-12.9,8.8-12.9s8.4,4.6,8.4,12.4v10.4h-15.8Zm14.2-1.4v-8c0-5.9-.8-12-7-12s-7.3,5.3-7.3,12.1v7.9h14.3Z"/><path class="cls-1" d="M112.5,33c0-12.6,0-23.5,.2-29.3h-.1c-1.5,8.4-7.2,37.4-11.5,59.9h-1.8c-3.4-18.3-9.5-51.4-10.9-59.8h-.1c.2,7.1,.3,21.2,.3,31.6v28.1h-1.6V2.4h2.3c4.8,25,10.5,55.1,10.8,59.2h.1c.1-3.1,6.3-34.3,11.3-59.2h2.5V63.6h-1.6l.1-30.6h0Z"/><path class="cls-1" d="M123.6,39.5v11.5c0,8.2,2.1,12,7.1,12,6.1,0,7-4.9,7-11.4v-.3h1.6v.2c0,6.7-1.1,12.9-8.6,12.9s-8.6-5.2-8.6-13.5V29.6c0-8,2.6-12.9,8.8-12.9s8.6,4.6,8.6,12.4v10.4h-15.9Zm14.3-1.4v-8c0-5.9-.8-12-7-12s-7.3,5.3-7.3,12.1v7.9h14.3Z"/><path class="cls-1" d="M141.6,17.5h5.9V5.8h1.6v11.7h6.8v1.4h-6.9V57.4c0,2.1,.3,5.4,3.8,5.4,.9,0,1.8-.1,2.8-.4v1.3c-.9,.4-1.8,.5-2.9,.5-2.2,0-5.2-.6-5.2-6.4V18.8h-5.9v-1.3h0Z"/><path class="cls-1" d="M175.9,57.5c0,2,.1,4.9,.2,6.1h-1.4c-.2-.8-.3-2.8-.3-5.9-1.3,4-3.2,6.6-7.8,6.6-6.2,0-8.3-5.7-8.3-12v-.1c0-10.4,5.1-14.6,12.5-14.6h3.5v-11.5c0-3-.6-8-6.2-8-6.4,0-6.6,5.8-6.6,9.6v.6h-1.6v-.6c0-4.7,.7-10.9,8.2-10.9,6.6,0,7.8,5.1,7.8,9.4v31.3h0Zm-1.5-18.4h-3.7c-8.5,0-10.8,6.2-10.8,13.2v.1c0,5.9,2,10.6,6.8,10.6,6.3,0,7.6-7,7.6-15l.1-8.9h0Z"/><path class="cls-1" d="M184.7,29.2c0-6.9-.1-9.3-.2-11.8h1.5c0,.5,.3,2.2,.3,6.2,.7-3.5,2.9-7,7.4-7,3.9,0,6.3,2,7,7.1,.9-4.3,3.7-7.1,8.1-7.1,3,0,7.4,1,7.4,10.1V63.5h-1.6V27.2c0-4.9-.9-9-5.9-9-5.5,0-7.5,4.7-7.5,12.7V63.6h-1.6V28.1c0-6.6-1.6-9.9-6-9.9-6.1,0-7.4,7.8-7.4,13.1V63.6h-1.6l.1-34.4h0Z"/><path class="cls-1" d="M241.7,29.3v21.5c0,9.7-2.9,13.5-8.9,13.5s-8.8-4.1-8.8-13V29.4c0-9.3,3.5-12.7,9-12.7s8.7,3.9,8.7,12.6h0Zm-16.1,.1v21.8c0,8.2,2.5,11.8,7.3,11.8s7.4-3.4,7.4-11.9V29.4c0-8.4-2.9-11.3-7.4-11.3-3.7,0-7.3,1.8-7.3,11.3Z"/><path class="cls-1" d="M249.6,33.2c0-7-.1-12.3-.2-15.7h1.5c.1,.8,.2,2.7,.2,8.3,1.2-5.3,5-8.7,9-9v1.6c-6.2,1.1-8.9,6.5-8.9,16.6v28.7h-1.6v-30.5h0Z"/><path class="cls-1" d="M265.4,57.6v28.2h-1.6V31c0-6.4,0-10.4-.1-13.5h1.5c.1,.5,.2,3.1,.2,6.1,.6-3,2.5-6.8,7.9-6.8,6.7,0,8.3,5.7,8.3,12.9v21c0,11.4-3.9,13.7-8.8,13.7-5.4,0-6.9-4-7.4-6.8h0Zm14.6-7V29.8c0-7.2-1.6-11.7-6.8-11.7-7.7,0-7.9,9.6-7.9,16.7v10.9c0,9.2,.8,17.3,7.5,17.3,3.6,0,7.2-1.4,7.2-12.4h0Z"/><path class="cls-1" d="M291,0V23.7c.9-4,3.5-7,8-7,4,0,8.2,1.4,8.2,11.6V63.6h-1.6V29.3c0-8-1.8-11.1-6.7-11.1-5.5,0-7.9,5.2-7.9,14.7v30.7h-1.6V0h1.6Z"/><path class="cls-1" d="M332.8,29.3v21.5c0,9.7-2.9,13.5-8.9,13.5s-8.8-4.1-8.8-13V29.4c0-9.3,3.5-12.7,9-12.7s8.7,3.9,8.7,12.6h0Zm-16.2,.1v21.8c0,8.2,2.5,11.8,7.3,11.8s7.4-3.4,7.4-11.9V29.4c0-8.4-2.9-11.3-7.4-11.3-3.6,0-7.3,1.8-7.3,11.3Z"/><path class="cls-1" d="M339.7,67.13v1.45c0,6.95,.8,15.05,6.9,15.05,5.2,0,7.2-4.78,7.2-14.33,0-8.68-1.3-12.88-7.1-18.96-5.5-5.79-7.7-9.55-7.7-18.96,0-7.38,1.8-14.47,8-14.47,7.3,0,7.7,9.55,7.7,15.49v1.88h-1.6v-1.74c0-4.78-.2-13.61-6.2-13.61-4.5,0-6.3,4.92-6.3,12.3,0,8.25,1.5,11.29,6.6,16.79,6,6.37,8.2,10.86,8.2,21.28,0,9.84-2,16.5-8.7,16.5-7.7,0-8.5-10.57-8.5-17.08v-1.45l1.5-.14h0Z"/><path class="cls-1" d="M361.9,17.77h1.6V84.64h-1.6V17.77ZM362.1,0h1.6V7.6h-1.6V0Z"/><path class="cls-1" d="M371.3,47.02v1.36c0,6.5,.8,14.09,6.9,14.09,5.2,0,7.2-4.47,7.2-13.41,0-8.13-1.3-12.06-7.1-17.75-5.5-5.42-7.7-8.94-7.7-17.75,0-6.91,1.8-13.55,8-13.55,7.3,0,7.7,8.94,7.7,14.5v1.76h-1.6v-1.63c0-4.47-.2-12.74-6.2-12.74-4.5,0-6.3,4.61-6.3,11.52,0,7.72,1.5,10.57,6.6,15.72,6,5.96,8.2,10.16,8.2,19.92,0,9.21-2,15.45-8.7,15.45-7.7,0-8.5-9.89-8.5-15.99v-1.36l1.5-.14h0Z"/></g></g><g><path class="cls-1" d="M86.52,73.77h1.57c.71,0,1.12,.3,1.12,.88,0,.46-.32,.68-.6,.75,.31,.07,.75,.28,.75,.88,0,.73-.62,1.03-1.21,1.03h-1.63v-3.54Zm1.47,1.5c.58,0,.89-.2,.89-.61,0-.48-.39-.61-.86-.61h-1.19v1.22h1.17Zm-1.17,1.76h1.21c.46,0,1-.14,1-.73,0-.5-.41-.75-1.08-.75h-1.13v1.48Z"/><path class="cls-1" d="M92.45,76.07c0,.65-.4,1.31-1.27,1.31-.79,0-1.26-.62-1.26-1.31,0-.73,.5-1.32,1.28-1.32s1.25,.63,1.25,1.31Zm-2.23,0c0,.52,.35,1.04,.97,1.04s.96-.48,.96-1.04-.36-1.05-.98-1.05-.96,.49-.96,1.05Z"/><path class="cls-1" d="M95.45,76.07c0,.65-.4,1.31-1.27,1.31-.79,0-1.26-.62-1.26-1.31,0-.73,.5-1.32,1.28-1.32s1.25,.63,1.25,1.31Zm-2.23,0c0,.52,.35,1.04,.97,1.04s.96-.48,.96-1.04-.36-1.05-.98-1.05-.96,.49-.96,1.05Z"/><path class="cls-1" d="M96.42,76.08c.27-.22,1.11-.91,1.54-1.25h.4l-1.21,.97,1.34,1.51h-.39l-1.17-1.34-.51,.39v.95h-.29v-3.75h.29v2.52Z"/><path class="cls-1" d="M100.45,73.56h.29v1.71c.12-.22,.41-.52,.97-.52,.7,0,1.19,.56,1.19,1.27,0,.82-.49,1.35-1.2,1.35-.56,0-.83-.26-.96-.51,0,.15,0,.34-.02,.44h-.28c0-.29,0-.58,0-.87v-2.88Zm2.15,2.47c0-.46-.27-1.01-.93-1.01s-.96,.46-.96,1.03c0,.66,.39,1.04,.96,1.04,.67,0,.92-.53,.92-1.07Z"/><path class="cls-1" d="M103.56,74.83c.58,1.3,.93,2.05,1.01,2.27h0c.1-.24,.38-.99,.94-2.27h.31l-1.05,2.48c-.45,1.04-.62,1.18-1.12,1.18-.08,0-.21,0-.29-.02v-.29c.09,.01,.23,.02,.29,.02,.33,0,.49-.16,.77-.77l-1.17-2.61h.32Z"/><path class="cls-1" d="M107.96,73.77h2.58v.28h-2.27v1.34h2.11v.29h-2.11v1.64h-.31v-3.54Z"/><path class="cls-1" d="M111.01,75.5c0-.22,0-.45,0-.67h.28c0,.06,.02,.32,.02,.59,.17-.41,.56-.66,1.03-.66v.3c-.58,0-1.03,.4-1.03,1.15v1.11h-.29v-1.81Z"/><path class="cls-1" d="M114.79,76.74c0,.2,.01,.51,.02,.57h-.28c-.02-.11-.03-.32-.03-.41-.13,.28-.41,.48-.97,.48-.71,0-.96-.43-.96-.79,0-.63,.58-.8,1.28-.8h.65v-.16c0-.31-.13-.61-.75-.61-.55,0-.68,.26-.74,.53h-.29c.03-.34,.26-.78,1.04-.78s1.03,.4,1.03,.81v1.17Zm-.28-.71h-.64c-.66,0-.99,.14-.99,.55,0,.3,.21,.55,.69,.55,.79,0,.94-.49,.94-.94v-.15Z"/><path class="cls-1" d="M115.69,75.45c0-.21,0-.44,0-.63h.28c0,.09,.01,.33,.02,.54,.1-.28,.38-.61,.94-.61s.95,.35,.95,1.05v1.5h-.29v-1.44c0-.48-.18-.84-.7-.84-.6,0-.9,.47-.9,1.12v1.16h-.29v-1.86Z"/><path class="cls-1" d="M118.47,77.08l1.89-1.99h-1.78v-.26h2.17v.24l-1.88,1.98h1.99l-.07,.26h-2.32v-.23Z"/><path class="cls-1" d="M122.95,73.77h.31v1.85c.56-.46,1.63-1.31,2.3-1.85h.43l-1.87,1.51,1.99,2.03h-.43l-1.81-1.86-.61,.47v1.39h-.31v-3.54Z"/><path class="cls-1" d="M128.66,76.74c0,.2,.01,.51,.02,.57h-.28c-.02-.11-.03-.32-.03-.41-.13,.28-.41,.48-.97,.48-.71,0-.96-.43-.96-.79,0-.63,.58-.8,1.28-.8h.65v-.16c0-.31-.13-.61-.75-.61-.55,0-.68,.26-.74,.53h-.29c.03-.34,.26-.78,1.04-.78s1.03,.4,1.03,.81v1.17Zm-.28-.71h-.64c-.66,0-.99,.14-.99,.55,0,.3,.21,.55,.69,.55,.79,0,.94-.49,.94-.94v-.15Z"/><path class="cls-1" d="M129.53,77.31v-3.75h.29v3.75h-.29Z"/><path class="cls-1" d="M131.01,76.08c.27-.22,1.11-.91,1.54-1.25h.4l-1.21,.97,1.34,1.51h-.39l-1.17-1.34-.51,.39v.95h-.29v-3.75h.29v2.52Z"/><path class="cls-1" d="M135.55,76.74c0,.2,.01,.51,.02,.57h-.28c-.02-.11-.03-.32-.03-.41-.13,.28-.41,.48-.97,.48-.71,0-.96-.43-.96-.79,0-.63,.58-.8,1.28-.8h.65v-.16c0-.31-.13-.61-.75-.61-.55,0-.68,.26-.74,.53h-.29c.03-.34,.26-.78,1.04-.78s1.03,.4,1.03,.81v1.17Zm-.28-.71h-.64c-.66,0-.99,.14-.99,.55,0,.3,.21,.55,.69,.55,.79,0,.94-.49,.94-.94v-.15Z"/><path class="cls-1" d="M86.83,79.29v3.54h-.31v-3.54h.31Z"/><path class="cls-1" d="M87.82,82.83v-3.75h.29v3.75h-.29Z"/><path class="cls-1" d="M89,82.83v-3.75h.29v3.75h-.29Z"/><path class="cls-1" d="M92.31,82.1c0,.24,0,.48,0,.72h-.27c-.01-.07-.02-.28-.02-.49-.12,.33-.37,.56-.92,.56s-.94-.28-.94-1v-1.55h.29v1.49c0,.4,.16,.78,.67,.78,.62,0,.89-.36,.89-1.17v-1.11h.29v1.76Z"/><path class="cls-1" d="M93.22,82.08c.1,.36,.4,.56,.92,.56,.56,0,.77-.2,.77-.48,0-.25-.13-.43-.84-.51-.83-.1-1.01-.37-1.01-.69,0-.29,.24-.69,1-.69,.85,0,1.06,.46,1.08,.73h-.3c-.04-.17-.15-.47-.8-.47-.55,0-.67,.25-.67,.42,0,.23,.14,.37,.76,.45,.89,.11,1.09,.37,1.09,.75,0,.44-.34,.75-1.08,.75s-1.11-.32-1.2-.81h.3Z"/><path class="cls-1" d="M95.49,80.34h.52v-.84h.29v.84h.69v.26h-.69v1.53c0,.32,.09,.47,.38,.47,.07,0,.19,0,.26-.02v.24c-.1,.04-.2,.04-.32,.04-.46,0-.6-.21-.6-.7v-1.55h-.52v-.26Z"/><path class="cls-1" d="M97.5,81.02c0-.22,0-.45,0-.67h.28c0,.06,.02,.32,.02,.59,.17-.41,.56-.66,1.03-.66v.3c-.58,0-1.03,.4-1.03,1.15v1.11h-.29v-1.81Z"/><path class="cls-1" d="M101.28,82.26c0,.2,.01,.51,.02,.57h-.28c-.02-.11-.03-.32-.03-.41-.13,.28-.41,.48-.97,.48-.71,0-.96-.43-.96-.79,0-.63,.58-.8,1.28-.8h.65v-.16c0-.31-.13-.61-.75-.61-.55,0-.68,.26-.74,.53h-.29c.03-.34,.26-.78,1.04-.78s1.03,.4,1.03,.81v1.17Zm-.28-.71h-.64c-.66,0-.99,.14-.99,.55,0,.3,.21,.55,.69,.55,.79,0,.94-.49,.94-.94v-.15Z"/><path class="cls-1" d="M101.71,80.34h.52v-.84h.29v.84h.69v.26h-.69v1.53c0,.32,.09,.47,.38,.47,.07,0,.19,0,.26-.02v.24c-.1,.04-.2,.04-.32,.04-.46,0-.6-.21-.6-.7v-1.55h-.52v-.26Z"/><path class="cls-1" d="M103.81,79.08h.29v.52h-.29v-.52Zm0,1.27h.29v2.48h-.29v-2.48Z"/><path class="cls-1" d="M107.3,81.59c0,.65-.4,1.31-1.27,1.31-.79,0-1.26-.62-1.26-1.31,0-.73,.5-1.32,1.28-1.32s1.25,.63,1.25,1.31Zm-2.23,0c0,.52,.35,1.04,.97,1.04s.96-.48,.96-1.04-.36-1.05-.98-1.05-.96,.49-.96,1.05Z"/><path class="cls-1" d="M107.96,80.97c0-.21,0-.44,0-.63h.28c0,.09,.01,.33,.02,.54,.1-.28,.38-.61,.94-.61s.95,.35,.95,1.05v1.5h-.29v-1.44c0-.48-.18-.84-.7-.84-.6,0-.9,.47-.9,1.12v1.16h-.29v-1.86Z"/><path class="cls-1" d="M111.03,82.08c.1,.36,.4,.56,.92,.56,.56,0,.77-.2,.77-.48,0-.25-.13-.43-.84-.51-.83-.1-1.01-.37-1.01-.69,0-.29,.24-.69,1-.69,.85,0,1.06,.46,1.08,.73h-.3c-.04-.17-.15-.47-.8-.47-.55,0-.67,.25-.67,.42,0,.23,.14,.37,.76,.45,.89,.11,1.09,.37,1.09,.75,0,.44-.34,.75-1.08,.75s-1.11-.32-1.2-.81h.3Z"/><path class="cls-1" d="M115.21,79.08h.29v1.71c.12-.22,.41-.52,.97-.52,.7,0,1.19,.56,1.19,1.27,0,.82-.49,1.35-1.2,1.35-.56,0-.83-.26-.96-.51,0,.15,0,.34-.02,.44h-.28c0-.29,0-.58,0-.87v-2.88Zm2.15,2.47c0-.46-.27-1.01-.93-1.01s-.96,.46-.96,1.03c0,.66,.39,1.04,.96,1.04,.67,0,.92-.53,.92-1.07Z"/><path class="cls-1" d="M118.32,80.34c.58,1.3,.93,2.05,1.01,2.27h0c.1-.24,.38-.99,.94-2.27h.31l-1.05,2.48c-.45,1.04-.62,1.18-1.12,1.18-.08,0-.21,0-.29-.02v-.29c.09,.01,.23,.02,.29,.02,.33,0,.49-.16,.77-.77l-1.17-2.61h.32Z"/><path class="cls-1" d="M123.03,79.29v3.54h-.31v-3.54h.31Z"/><path class="cls-1" d="M124.31,81.6c.27-.22,1.11-.91,1.54-1.25h.4l-1.21,.97,1.34,1.51h-.39l-1.17-1.34-.51,.39v.95h-.29v-3.75h.29v2.52Z"/><path class="cls-1" d="M126.86,81.65c.03,.57,.41,.99,.98,.99,.44,0,.69-.2,.85-.49h.29c-.12,.33-.46,.75-1.17,.75-.82,0-1.24-.64-1.24-1.3,0-.78,.52-1.32,1.23-1.32,.93,0,1.23,.7,1.23,1.29v.09h-2.16Zm1.85-.25c-.02-.35-.21-.86-.92-.86-.56,0-.87,.37-.92,.86h1.84Z"/><path class="cls-1" d="M132,82.48c0,.96-.26,1.53-1.27,1.53-.9,0-1.11-.53-1.16-.84h.3c.08,.3,.29,.57,.87,.57,.85,0,.97-.55,.97-1.26v-.15c-.15,.34-.46,.55-.99,.55-.69,0-1.18-.54-1.18-1.26,0-.81,.59-1.34,1.24-1.34,.59,0,.85,.29,.93,.51,0-.14,0-.36,.01-.44h.27c0,.24,0,.48,0,.72v1.42Zm-2.16-.88c0,.6,.4,1,.94,1,.59,0,.95-.37,.95-1.03s-.34-1.02-.92-1.02c-.67,0-.97,.55-.97,1.05Z"/><path class="cls-1" d="M134.89,82.26c0,.2,.01,.51,.02,.57h-.28c-.02-.11-.03-.32-.03-.41-.13,.28-.41,.48-.97,.48-.71,0-.96-.43-.96-.79,0-.63,.58-.8,1.28-.8h.65v-.16c0-.31-.13-.61-.75-.61-.55,0-.68,.26-.74,.53h-.29c.03-.34,.26-.78,1.04-.78s1.03,.4,1.03,.81v1.17Zm-.28-.71h-.64c-.66,0-.99,.14-.99,.55,0,.3,.21,.55,.69,.55,.79,0,.94-.49,.94-.94v-.15Z"/><path class="cls-1" d="M135.8,80.98c0-.21,0-.43,0-.64h.28c.01,.1,.02,.26,.01,.41,.12-.23,.37-.48,.83-.48,.39,0,.65,.2,.77,.51,.13-.23,.37-.51,.86-.51s.87,.27,.87,1v1.55h-.29v-1.54c0-.33-.1-.74-.61-.74-.46,0-.76,.32-.76,.93v1.36h-.29v-1.57c0-.33-.11-.71-.62-.71-.55,0-.76,.44-.76,.98v1.3h-.29v-1.84Z"/><path class="cls-1" d="M140.3,79.08h.29v.52h-.29v-.52Zm0,1.27h.29v2.48h-.29v-2.48Z"/><path class="cls-1" d="M144.02,82.83v-1.39s0-.05-.03-.08l-1.49-2.07h.37c.45,.63,1.16,1.58,1.32,1.86,.17-.28,.84-1.23,1.3-1.86h.35l-1.48,2.08s-.02,.04-.02,.08v1.39h-.31Z"/><path class="cls-1" d="M148.08,81.59c0,.65-.4,1.31-1.27,1.31-.79,0-1.26-.62-1.26-1.31,0-.73,.5-1.32,1.28-1.32s1.25,.63,1.25,1.31Zm-2.23,0c0,.52,.35,1.04,.97,1.04s.96-.48,.96-1.04-.36-1.05-.98-1.05-.96,.49-.96,1.05Z"/><path class="cls-1" d="M148.75,81.02c0-.22,0-.45,0-.67h.28c0,.06,.02,.32,.02,.59,.17-.41,.56-.66,1.03-.66v.3c-.58,0-1.03,.4-1.03,1.15v1.11h-.29v-1.81Z"/><path class="cls-1" d="M150.59,79.08h.29v.52h-.29v-.52Zm0,1.27h.29v2.48h-.29v-2.48Z"/><path class="cls-1" d="M151.8,80.34c.58,1.3,.93,2.05,1.01,2.27h0c.1-.24,.38-.99,.94-2.27h.31l-1.05,2.48c-.45,1.04-.62,1.18-1.12,1.18-.08,0-.21,0-.29-.02v-.29c.09,.01,.23,.02,.29,.02,.33,0,.49-.16,.77-.77l-1.17-2.61h.32Z"/><path class="cls-1" d="M156.75,82.1c0,.24,0,.48,0,.72h-.27c-.01-.07-.02-.28-.02-.49-.12,.33-.37,.56-.92,.56s-.94-.28-.94-1v-1.55h.29v1.49c0,.4,.16,.78,.67,.78,.62,0,.89-.36,.89-1.17v-1.11h.29v1.76Z"/><path class="cls-1" d="M157.91,81.6c.27-.22,1.11-.91,1.54-1.25h.4l-1.21,.97,1.34,1.51h-.39l-1.17-1.34-.51,.39v.95h-.29v-3.75h.29v2.52Z"/><path class="cls-1" d="M160.42,79.08h.29v.52h-.29v-.52Zm0,1.27h.29v2.48h-.29v-2.48Z"/></g></g></svg>