<?xml version="1.0" encoding="UTF-8"?><svg id="Layer_2" xmlns="http://www.w3.org/2000/svg" viewBox="0 0 387 85.8"><defs><style>.cls-1{fill:lime;}</style></defs><g id="Layer_2-2"><g id="Layer_1-2"><g><path class="cls-1" d="M9.1,3.8H0v-1.4H19.8v1.4H10.7V84.73s-1.6,0-1.6,0V3.8Z"/><path class="cls-1" d="M25.5,0V23.7c.9-4,3.5-7,8-7,4,0,8.2,1.4,8.2,11.6v56.43s-1.6,0-1.6,0V29.3c0-8-1.8-11.1-6.7-11.1-5.5,0-7.9,5.2-7.9,14.7v51.83s-1.5,0-1.5,0V0S25.5,0,25.5,0h0Z"/><path class="cls-1" d="M51.2,39.5v28.45c0,10.92,2.1,15.99,7.1,15.99,6.1,0,7-6.53,7-15.19v-.4h1.6v.27c0,8.93-1.1,17.19-8.5,17.19s-8.6-6.93-8.6-17.99V29.6c0-8,2.6-12.9,8.8-12.9s8.4,4.6,8.4,12.4v10.4h-15.8Zm14.2-1.4v-8c0-5.9-.8-12-7-12s-7.3,5.3-7.3,12.1v7.9h14.3Z"/><path class="cls-1" d="M112.5,33c0-12.6,0-23.5,.2-29.3h-.1c-1.5,8.4-7.2,37.4-11.5,59.9h-1.8c-3.4-18.3-9.5-51.4-10.9-59.8h-.1c.2,7.1,.3,21.2,.3,31.6v28.1h-1.6V2.4h2.3c4.8,25,10.5,55.1,10.8,59.2h.1c.1-3.1,6.3-34.3,11.3-59.2h2.5V63.6h-1.6l.1-30.6h0Z"/><path class="cls-1" d="M123.6,39.5v11.5c0,8.2,2.1,12,7.1,12,6.1,0,7-4.9,7-11.4v-.3h1.6v.2c0,6.7-1.1,12.9-8.6,12.9s-8.6-5.2-8.6-13.5V29.6c0-8,2.6-12.9,8.8-12.9s8.6,4.6,8.6,12.4v10.4h-15.9Zm14.3-1.4v-8c0-5.9-.8-12-7-12s-7.3,5.3-7.3,12.1v7.9h14.3Z"/><path class="cls-1" d="M141.6,17.5h5.9V5.8h1.6v11.7h6.8v1.4h-6.9V57.4c0,2.1,.3,5.4,3.8,5.4,.9,0,1.8-.1,2.8-.4v1.3c-.9,.4-1.8,.5-2.9,.5-2.2,0-5.2-.6-5.2-6.4V18.8h-5.9v-1.3h0Z"/><path class="cls-1" d="M175.9,57.5c0,2,.1,4.9,.2,6.1h-1.4c-.2-.8-.3-2.8-.3-5.9-1.3,4-3.2,6.6-7.8,6.6-6.2,0-8.3-5.7-8.3-12v-.1c0-10.4,5.1-14.6,12.5-14.6h3.5v-11.5c0-3-.6-8-6.2-8-6.4,0-6.6,5.8-6.6,9.6v.6h-1.6v-.6c0-4.7,.7-10.9,8.2-10.9,6.6,0,7.8,5.1,7.8,9.4v31.3h0Zm-1.5-18.4h-3.7c-8.5,0-10.8,6.2-10.8,13.2v.1c0,5.9,2,10.6,6.8,10.6,6.3,0,7.6-7,7.6-15l.1-8.9h0Z"/><path class="cls-1" d="M184.7,29.2c0-6.9-.1-9.3-.2-11.8h1.5c0,.5,.3,2.2,.3,6.2,.7-3.5,2.9-7,7.4-7,3.9,0,6.3,2,7,7.1,.9-4.3,3.7-7.1,8.1-7.1,3,0,7.4,1,7.4,10.1V63.5h-1.6V27.2c0-4.9-.9-9-5.9-9-5.5,0-7.5,4.7-7.5,12.7V63.6h-1.6V28.1c0-6.6-1.6-9.9-6-9.9-6.1,0-7.4,7.8-7.4,13.1V63.6h-1.6l.1-34.4h0Z"/><path class="cls-1" d="M241.7,29.3v21.5c0,9.7-2.9,13.5-8.9,13.5s-8.8-4.1-8.8-13V29.4c0-9.3,3.5-12.7,9-12.7s8.7,3.9,8.7,12.6h0Zm-16.1,.1v21.8c0,8.2,2.5,11.8,7.3,11.8s7.4-3.4,7.4-11.9V29.4c0-8.4-2.9-11.3-7.4-11.3-3.7,0-7.3,1.8-7.3,11.3Z"/><path class="cls-1" d="M249.6,33.2c0-7-.1-12.3-.2-15.7h1.5c.1,.8,.2,2.7,.2,8.3,1.2-5.3,5-8.7,9-9v1.6c-6.2,1.1-8.9,6.5-8.9,16.6v28.7h-1.6v-30.5h0Z"/><path class="cls-1" d="M265.4,57.6v28.2h-1.6V31c0-6.4,0-10.4-.1-13.5h1.5c.1,.5,.2,3.1,.2,6.1,.6-3,2.5-6.8,7.9-6.8,6.7,0,8.3,5.7,8.3,12.9v21c0,11.4-3.9,13.7-8.8,13.7-5.4,0-6.9-4-7.4-6.8h0Zm14.6-7V29.8c0-7.2-1.6-11.7-6.8-11.7-7.7,0-7.9,9.6-7.9,16.7v10.9c0,9.2,.8,17.3,7.5,17.3,3.6,0,7.2-1.4,7.2-12.4h0Z"/><path class="cls-1" d="M291,0V23.7c.9-4,3.5-7,8-7,4,0,8.2,1.4,8.2,11.6V63.6h-1.6V29.3c0-8-1.8-11.1-6.7-11.1-5.5,0-7.9,5.2-7.9,14.7v30.7h-1.6V0h1.6Z"/><path class="cls-1" d="M332.8,29.3v21.5c0,9.7-2.9,13.5-8.9,13.5s-8.8-4.1-8.8-13V29.4c0-9.3,3.5-12.7,9-12.7s8.7,3.9,8.7,12.6h0Zm-16.2,.1v21.8c0,8.2,2.5,11.8,7.3,11.8s7.4-3.4,7.4-11.9V29.4c0-8.4-2.9-11.3-7.4-11.3-3.6,0-7.3,1.8-7.3,11.3Z"/><path class="cls-1" d="M339.7,67.13v1.45c0,6.95,.8,15.05,6.9,15.05,5.2,0,7.2-4.78,7.2-14.33,0-8.68-1.3-12.88-7.1-18.96-5.5-5.79-7.7-9.55-7.7-18.96,0-7.38,1.8-14.47,8-14.47,7.3,0,7.7,9.55,7.7,15.49v1.88h-1.6v-1.74c0-4.78-.2-13.61-6.2-13.61-4.5,0-6.3,4.92-6.3,12.3,0,8.25,1.5,11.29,6.6,16.79,6,6.37,8.2,10.86,8.2,21.28,0,9.84-2,16.5-8.7,16.5-7.7,0-8.5-10.57-8.5-17.08v-1.45l1.5-.14h0Z"/><path class="cls-1" d="M361.9,17.77h1.6V84.64h-1.6V17.77ZM362.1,0h1.6V7.6h-1.6V0Z"/><path class="cls-1" d="M371.3,47.02v1.36c0,6.5,.8,14.09,6.9,14.09,5.2,0,7.2-4.47,7.2-13.41,0-8.13-1.3-12.06-7.1-17.75-5.5-5.42-7.7-8.94-7.7-17.75,0-6.91,1.8-13.55,8-13.55,7.3,0,7.7,8.94,7.7,14.5v1.76h-1.6v-1.63c0-4.47-.2-12.74-6.2-12.74-4.5,0-6.3,4.61-6.3,11.52,0,7.72,1.5,10.57,6.6,15.72,6,5.96,8.2,10.16,8.2,19.92,0,9.21-2,15.45-8.7,15.45-7.7,0-8.5-9.89-8.5-15.99v-1.36l1.5-.14h0Z"/></g></g></g></svg>